# xmcd
#
# Track frame offsets: 
#        150
#        28467
#        45375
#        58325
#        72062
#        86215
#        100882
#        115570
#        128790
#        158685
#        177855
#        198162
#        211462
#        223390
#        235955
#        253030
#
# Disc length: 3567 seconds
#
# Revision: 3
# Processed by: cddbd v1.5.2PL0 Copyright (c) Steve Scherf et al.
# Submitted via: ExactAudioCopyFreeDBPlugin 1.0
#
DISCID=ea0ded10
DTITLE=Stevie Wonder - 16 Classic Love Songs
DYEAR=1984
DGENRE=Funk
TTITLE0=I Just Called To Say I Love You
TTITLE1=Overjoyed
TTITLE2=My Cherie Amour
TTITLE3=Until You Come Back To Me
TTITLE4=Yesterme, Yesteryou, Yesterday
TTITLE5=Never Had A Dream Come True
TTITLE6=Heaven Help Us All
TTITLE7=You Are The Sunshine Of My Life
TTITLE8=Isn't She Love
TTITLE9=Free
TTITLE10=Chemical Love
TTITLE11=Never Dreamed You'd Leave In Summer
TTITLE12=I Was Made To Love Her
TTITLE13=I Dont Know Why I Love You
TTITLE14=Blowin' In The Wind
TTITLE15=Alfie (instrumental)
EXTD=
EXTT0=
EXTT1=
EXTT2=
EXTT3=
EXTT4=
EXTT5=
EXTT6=
EXTT7=
EXTT8=
EXTT9=
EXTT10=
EXTT11=
EXTT12=
EXTT13=
EXTT14=
EXTT15=
PLAYORDER=
